<svg xmlns="http://www.w3.org/2000/svg" viewBox="1 3.066 58 48.87">
	<path d="M34.291,42.146l-3.46,3.454V7.946l4.872-4.88V22.831l1.547-1.542V3.072l4.879,4.878v8.463l8.513-8.513h3.438v3.461l-7.998,7.998h8.039l4.879,4.878h-17.796l-5.495,5.495v4.179l5.462-5.462h6.815l-12.277,12.277-1.418,1.421ZM1,24.236H18.703l5.391,5.392v4.253l-.115-.115-1.418-1.419-3.893-3.893h-6.842l12.267,12.27,1.44,1.438,3.439,3.437V7.944l-4.879-4.878V22.727l-1.538-1.536V3.453l-.029-.361-4.847,4.85v8.367L9.265,7.899h-3.432v3.464l7.994,7.994H5.878L1,24.236Zm9.57,4.217H5.692c.422,12.718,10.582,22.958,23.297,23.477l-.004-4.881c-10.02-.513-18.001-8.572-18.415-18.597Zm38.817,20.249l.892,1.383-.537-.003-.815-1.353h-.56v1.353h-.467v-3.123h1.194c.726,0,1.106,.253,1.106,.882,.025,.45-.319,.835-.769,.86h-.044Zm-.45-.38c.414,0,.773-.029,.773-.506,0-.387-.356-.467-.683-.467h-.66v.972h.57Zm-18.105-1.266v4.88c12.749-.477,22.959-10.73,23.383-23.481h-4.882c-.418,10.057-8.447,18.129-18.501,18.602Zm20.866,1.448c.006,1.502-1.207,2.724-2.708,2.73h-.036c-1.501-.015-2.705-1.244-2.69-2.744s1.244-2.705,2.744-2.69c1.485,.015,2.683,1.219,2.69,2.704Zm-.437,.05c.021-1.253-.978-2.286-2.232-2.307-1.253-.021-2.286,.978-2.307,2.232v.026c-.05,1.21,.891,2.231,2.101,2.28,.044,.002,.087,.002,.131,.001,1.253,.021,2.286-.978,2.307-2.232Z" fill="#016A35"/>
</svg>